<?xml version="1.0" encoding="UTF-8"?>
<svg width="24px" height="18px" viewBox="0 0 24 18" version="1.1" xmlns="http://www.w3.org/2000/svg" xmlns:xlink="http://www.w3.org/1999/xlink">
    <!-- Generator: Sketch 59.1 (86144) - https://sketch.com -->
    <title>icons8-play_button</title>
    <desc>Created with Sketch.</desc>
    <g id="Home" stroke="none" stroke-width="1" fill="none" fill-rule="evenodd" opacity="0.5">
        <g id="home-jmb-v1" transform="translate(-162.000000, -6438.000000)" fill="#FFFFFF" fill-rule="nonzero">
            <g id="Footer" transform="translate(0.000000, 6175.000000)">
                <g id="Group-2" transform="translate(120.000000, 260.362862)">
                    <g id="icons8-play_button" transform="translate(42.000000, 2.637138)">
                        <path d="M22.5255855,2.98706897 C22.3113759,1.79266554 21.2907315,0.922851698 20.1062797,0.651299974 C18.3338022,0.271551724 15.0534584,0 11.5043034,0 C7.9572479,0 4.62440253,0.271551724 2.84982451,0.651299974 C1.6674732,0.922851698 0.644728334,1.73750687 0.430518696,2.98706897 C0.214209638,4.34482759 0,6.24568966 0,8.68965517 C0,11.1336207 0.214209638,13.0344828 0.483021395,14.3922414 C0.699330453,15.5866448 1.71997536,16.4564586 2.90232721,16.7280104 C4.78400951,17.1077586 8.0097506,17.3793103 11.5589056,17.3793103 C15.1080611,17.3793103 18.3338022,17.1077586 20.2154845,16.7280104 C21.3978358,16.4564586 22.4184807,15.6418035 22.6347903,14.3922414 C22.8489994,13.0344828 23.1178111,11.078462 23.1724138,8.68965517 C23.063209,6.24568966 22.7943973,4.34482759 22.5255855,2.98706897 Z M8.60197624,12.4913793 L8.60197624,4.88793103 L15.1605632,8.68965517 L8.60197624,12.4913793 Z" id="Shape"></path>
                    </g>
                </g>
            </g>
        </g>
    </g>
</svg>