<?xml version="1.0" encoding="UTF-8"?>
<svg width="20px" height="20px" viewBox="0 0 20 20" version="1.1" xmlns="http://www.w3.org/2000/svg" xmlns:xlink="http://www.w3.org/1999/xlink">
    <!-- Generator: Sketch 59.1 (86144) - https://sketch.com -->
    <title>icons8-linkedin</title>
    <desc>Created with Sketch.</desc>
    <g id="Home" stroke="none" stroke-width="1" fill="none" fill-rule="evenodd" opacity="0.5">
        <g id="home-jmb-v1" transform="translate(-120.000000, -6436.000000)" fill="#FFFFFF" fill-rule="nonzero">
            <g id="Footer" transform="translate(0.000000, 6175.000000)">
                <g id="Group-2" transform="translate(120.000000, 260.362862)">
                    <g id="icons8-linkedin" transform="translate(0.000000, 0.637138)">
                        <path d="M17.2241379,0 L2.32758621,0 C1.04275862,0 0,1.04275862 0,2.32758621 L0,17.2241379 C0,18.5089655 1.04275862,19.5517241 2.32758621,19.5517241 L17.2241379,19.5517241 C18.5089655,19.5517241 19.5517241,18.5089655 19.5517241,17.2241379 L19.5517241,2.32758621 C19.5517241,1.04275862 18.5089655,0 17.2241379,0 Z M6.05172414,7.44827586 L6.05172414,16.2931034 L3.25862069,16.2931034 L3.25862069,7.44827586 L6.05172414,7.44827586 Z M3.25862069,4.87396552 C3.25862069,4.22224138 3.81724138,3.72413793 4.65517241,3.72413793 C5.49310345,3.72413793 6.01913793,4.22224138 6.05172414,4.87396552 C6.05172414,5.52568966 5.53034483,6.05172414 4.65517241,6.05172414 C3.81724138,6.05172414 3.25862069,5.52568966 3.25862069,4.87396552 Z M16.2931034,16.2931034 L13.5,16.2931034 C13.5,16.2931034 13.5,11.9824138 13.5,11.637931 C13.5,10.7068966 13.0344828,9.77586207 11.8706897,9.75724138 L11.8334483,9.75724138 C10.7068966,9.75724138 10.2413793,10.7162069 10.2413793,11.637931 C10.2413793,12.0615517 10.2413793,16.2931034 10.2413793,16.2931034 L7.44827586,16.2931034 L7.44827586,7.44827586 L10.2413793,7.44827586 L10.2413793,8.64 C10.2413793,8.64 11.1398276,7.44827586 12.9460345,7.44827586 C14.7941379,7.44827586 16.2931034,8.71913793 16.2931034,11.2934483 L16.2931034,16.2931034 Z" id="Shape"></path>
                    </g>
                </g>
            </g>
        </g>
    </g>
</svg>