<?xml version="1.0" encoding="UTF-8"?>
<svg width="123px" height="44px" viewBox="0 0 123 44" version="1.1" xmlns="http://www.w3.org/2000/svg" xmlns:xlink="http://www.w3.org/1999/xlink">
    <!-- Generator: Sketch 59.1 (86144) - https://sketch.com -->
    <title>RCD_logo</title>
    <desc>Created with Sketch.</desc>
    <g id="Symbols" stroke="none" stroke-width="1" fill="none" fill-rule="evenodd">
        <g id="Navbar-/-Desktop" transform="translate(-119.000000, -43.000000)">
            <g id="Group-14" transform="translate(119.000000, 43.000000)">
                <g id="Nav" transform="translate(0.000000, 0.982177)">
                    <g id="RCD_logo" transform="translate(0.000000, 0.000000)">
                        <path d="M59.6118914,0.000160535348 C67.0933027,0.000160535348 73.5045383,3.41715545 77.4555154,8.68753097 L77.4555154,8.68753097 L71.8730932,13.785331 C70.7857358,14.7782421 69.0683821,14.6763022 68.1209331,13.5533574 C66.1286719,11.1894744 63.2838702,9.7807767 59.669982,9.7807767 C52.9077484,9.7807767 48.1852303,14.9853327 48.1852303,21.4492886 C48.1852303,27.7968563 52.7915672,33.002215 59.5538008,33.002215 C63.4687782,33.002215 66.4453064,31.2989349 68.4048405,28.7070917 C69.3236534,27.4910364 71.1154612,27.3288957 72.2453638,28.35873 L72.2453638,28.35873 L77.8449677,33.4629514 C73.9798992,39.108177 67.6382086,42.8976139 59.6118914,42.8976139 C46.4940582,42.8976139 37.806654,33.3457606 37.806654,21.4492886 C37.806654,9.2662609 47.0774185,0.000160535348 59.6118914,0.000160535348 Z M19.0646715,0.572067717 C29.3254303,0.572067717 35.0984878,7.03522088 35.0984878,14.9279413 C35.0984878,20.3050729 32.6488656,25.280866 27.4599866,27.6262875 L27.4599866,27.6262875 L36.3216625,42.3257067 L28.6651614,42.3257067 C26.3039023,42.3257067 24.130824,41.0655042 22.9911033,39.0363374 L22.9911033,39.0363374 L12.764708,20.8195887 L18.3078577,20.8195887 C22.6221055,20.8195887 24.7780021,18.0736315 24.7780021,15.1567042 C24.7780021,11.7252611 22.5640149,9.83816808 18.3078577,9.83816808 L18.3078577,9.83816808 L10.1473595,9.83816808 L10.1473595,39.7836295 C10.1473595,41.1875111 8.98800254,42.3257067 7.55701082,42.3257067 L7.55701082,42.3257067 L0.000327270833,42.3257067 L0.000327270833,21.8694898 C0.000327270833,20.1052064 0.748141125,18.4203879 2.06376988,17.2187808 L2.06376988,17.2187808 L8.10600764,11.7003781 C9.20727399,10.6938215 9.20727399,8.98171199 8.10600764,7.97515535 L8.10600764,7.97515535 L0.000327270833,0.572067717 Z M119.190974,36.1385941 C120.945964,36.1385941 122.365501,37.5232115 122.365501,39.2321103 C122.365501,40.9450225 120.945964,42.3256265 119.190974,42.3256265 C117.435166,42.3256265 116.011538,40.9450225 116.011538,39.2321103 C116.011538,37.5232115 117.435166,36.1385941 119.190974,36.1385941 Z M96.7095131,0.572228253 C109.945164,0.572228253 118.864112,9.60876307 118.864112,21.4490478 C118.864112,33.3463225 109.536893,42.3258673 96.8854212,42.3258673 L96.8854212,42.3258673 L80.976786,42.3258673 L87.2489315,35.2029138 C88.4794698,33.8054536 90.2688231,33.0019742 92.1514486,33.0019742 L92.1514486,33.0019742 L96.4190602,33.0019742 C103.881653,33.0019742 108.603353,27.9122009 108.603353,21.4490478 C108.603353,14.8711118 104.229379,9.83752594 96.2431522,9.83752594 L96.2431522,9.83752594 L92.1702666,9.8664223 C90.2720958,9.87926513 88.4631063,9.07498303 87.2219316,7.66548266 L87.2219316,7.66548266 L80.976786,0.572228253 Z M119.190974,36.5094308 C117.63971,36.5094308 116.384627,37.7278941 116.384627,39.2321103 C116.384627,40.7403399 117.63971,41.9547898 119.190974,41.9547898 C120.737329,41.9547898 121.992412,40.7363265 121.992412,39.2321103 C121.992412,37.7327101 120.737329,36.5094308 119.190974,36.5094308 Z M118.200161,37.3700608 L119.26461,37.3700608 C120.037787,37.3700608 120.528693,37.7754125 120.528693,38.4183566 C120.528693,38.8598288 120.29082,39.1900132 119.866749,39.3371911 L119.746516,39.3727392 L120.788874,41.0984943 L120.33724,41.0984943 L119.355428,39.4152811 L119.239962,39.4215019 L119.239962,39.4215019 L119.121429,39.4241106 L118.596159,39.4241106 L118.596159,41.0984943 L118.200161,41.0984943 L118.200161,37.3700608 L119.26461,37.3700608 Z M119.268701,37.7240412 L118.596159,37.7240412 L118.596159,39.1046452 L119.294882,39.1046452 C119.842243,39.0958158 120.137605,38.8485913 120.137605,38.42237 C120.137605,37.9792924 119.82097,37.7240412 119.268701,37.7240412 Z" id="Combined-Shape" fill="#43DBF1"></path>
                        <path d="M88.2960345,20.7528059 L82.6129765,15.5346044 C81.9919801,14.9639013 80.9766223,15.3957413 80.9766223,16.2297225 L80.9766223,26.6677309 C80.9766223,27.501712 81.9919801,27.9335521 82.6129765,27.3636516 L88.2960345,22.1446474 C88.7059412,21.768192 88.7059412,21.1292613 88.2960345,20.7528059" id="Fill-12" fill="#AFDC19"></path>
                    </g>
                </g>
            </g>
        </g>
    </g>
</svg>