<?xml version="1.0" encoding="UTF-8"?>
<svg width="33px" height="27px" viewBox="0 0 33 27" version="1.1" xmlns="http://www.w3.org/2000/svg" xmlns:xlink="http://www.w3.org/1999/xlink">
    <!-- Generator: Sketch 59.1 (86144) - https://sketch.com -->
    <title>noun_menu_1807551</title>
    <desc>Created with Sketch.</desc>
    <g id="Symbols" stroke="none" stroke-width="1" fill="none" fill-rule="evenodd">
        <g id="Navbar-/-Desktop" transform="translate(-1286.000000, -51.000000)" fill="#FFFFFF" fill-rule="nonzero">
            <g id="Group-14" transform="translate(119.000000, 43.000000)">
                <g id="Nav" transform="translate(0.000000, 0.982177)">
                    <g id="Group-33" transform="translate(1090.244919, 6.497482)">
                        <g id="noun_menu_1807551" transform="translate(76.922266, 0.526108)">
                            <g id="Group" transform="translate(0.000000, 0.268452)">
                                <path d="M1.72737721,0.152437758 C0.773389959,0.152437758 0,0.906166667 0,1.83599574 C0,2.76582482 0.773389959,3.51955373 1.72737721,3.51955373 L31.0927897,3.51955373 C32.0467769,3.51955373 32.8201669,2.76582482 32.8201669,1.83599574 C32.8201669,0.906166667 32.0467769,0.152437758 31.0927897,0.152437758 L1.72737721,0.152437758 Z M1.72737721,11.5164542 C0.773389959,11.5164542 0,12.2701915 0,13.2000206 C0,14.1298496 0.773389959,14.8835785 1.72737721,14.8835785 L31.0927897,14.8835785 C32.0467769,14.8835785 32.8201669,14.1298496 32.8201669,13.2000206 C32.8201669,12.2701915 32.0467769,11.5164542 31.0927897,11.5164542 L1.72737721,11.5164542 Z M1.72737721,22.880479 C0.773389959,22.880479 0,23.6342079 0,24.564037 C0,25.493866 0.773389959,26.2475949 1.72737721,26.2475949 L31.0927897,26.2475949 C32.0467769,26.2475949 32.8201669,25.493866 32.8201669,24.564037 C32.8201669,23.6342079 32.0467769,22.880479 31.0927897,22.880479 L1.72737721,22.880479 Z" id="Shape"></path>
                            </g>
                        </g>
                    </g>
                </g>
            </g>
        </g>
    </g>
</svg>